<svg xmlns="http://www.w3.org/2000/svg" data-name="Layer 1" viewBox="0 0 100 125" x="0px" y="0px" fill="#fff">
	<g data-name="Group">
		<path data-name="Compound Path" d="M15.1,84.9H29.3V95.3h6V84.9h5.8V95.3h6V84.9h5.8V95.3h6V84.9h5.8V95.3h6V84.9H84.9V70.7H95.3v-6H84.9V58.9H95.3v-6H84.9V47.1H95.3v-6H84.9V35.3H95.3v-6H84.9V15.1H70.7V4.7h-6V15.1H58.9V4.7h-6V15.1H47.1V4.7h-6V15.1H35.3V4.7h-6V15.1H15.1V29.3H4.7v6H15.1v5.8H4.7v6H15.1v5.8H4.7v6H15.1v5.8H4.7v6H15.1Zm6-63.8H78.9V78.9H21.1Z" />
		<path data-name="Compound Path" d="M67.6,41.1l2.7-3.9-7.5-7.5-3.9,2.7-2.8-1.1-.8-4.7H44.7l-.8,4.7-2.8,1.1-3.9-2.7-7.5,7.5,2.7,3.9a23.3,23.3,0,0,0-1.1,2.8l-4.7.8V55.3l4.7.8a23.3,23.3,0,0,0,1.1,2.8l-2.7,3.9,7.5,7.5,3.9-2.7,2.8,1.1.8,4.7H55.3l.8-4.7,2.8-1.1,3.9,2.7,7.5-7.5-2.7-3.9a23.3,23.3,0,0,0,1.1-2.8l4.7-.8V44.7l-4.7-.8A23.3,23.3,0,0,0,67.6,41.1Zm-.2,9.2-3.6.6-.4,2a14.9,14.9,0,0,1-1.9,4.5l-1.1,1.7,2.1,3.1-.3.3-3.1-2.1-1.7,1.1a14.9,14.9,0,0,1-4.5,1.9l-2,.4-.6,3.6h-.6l-.6-3.6-2-.4a14.9,14.9,0,0,1-4.5-1.9l-1.7-1.1-3.1,2.1-.3-.3,2.1-3.1-1.1-1.7a14.9,14.9,0,0,1-1.9-4.5l-.4-2-3.6-.6v-.6l3.6-.6.4-2a14.9,14.9,0,0,1,1.9-4.5l1.1-1.7-2.1-3.1.3-.3,3.1,2.1,1.7-1.1a14.9,14.9,0,0,1,4.5-1.9l2-.4.6-3.6h.6l.6,3.6,2,.4a14.9,14.9,0,0,1,4.5,1.9l1.7,1.1,3.1-2.1.3.3-2.1,3.1,1.1,1.7a14.9,14.9,0,0,1,1.9,4.5l.4,2,3.6.6Z" />
		<path data-name="Compound Path" d="M50,40.3A9.7,9.7,0,1,0,59.7,50,9.8,9.8,0,0,0,50,40.3Zm0,13.4A3.7,3.7,0,1,1,53.7,50,3.8,3.8,0,0,1,50,53.7Z" />
	</g>
</svg>
