<svg xmlns="http://www.w3.org/2000/svg" fill="#fff" xmlns:xlink="http://www.w3.org/1999/xlink" version="1.1" x="0px" y="0px" viewBox="0 0 80 100" enable-background="new 0 0 100 100" xml:space="preserve">
	<path d="M74,28c-8.4,0-16.5-3.2-22.6-9c-0.801-0.7-2-0.7-2.7,0c-6.1,5.8-14.2,9-22.6,9c-1.1,0-2,0.9-2,2v31.2  c0,1.154,5.945,15.276,22,19.7c0.208,0.06,3.784,1.1,4,1.1c0.262,0,3.749-1.027,4-1.1c14.979-4.127,22-17.72,22-19.7V30  C76,28.9,75.1,28,74,28z M72,60.8c-1.2,2.601-2.7,4.9-4.4,7C65.2,62,60,57.6,53.7,56.4C57.9,54.9,61,50.8,61,46c0-6.1-4.9-11-11-11  c-6.1,0-11,4.9-11,11c0,4.8,3.1,8.9,7.3,10.4C40,57.6,34.8,62,32.4,67.8c-1.8-2.1-3.3-4.399-4.4-7V31.9c8.1-0.4,15.8-3.5,22-8.8  c6.2,5.3,13.9,8.4,22,8.8V60.8z" />
</svg>
